<svg width="578" height="613" viewBox="0 0 578 613" fill="none" xmlns="http://www.w3.org/2000/svg">
<path d="M180.141 82.6201C174.786 88.8193 172.555 100.02 176.379 100.923C177.131 101.131 177.509 100.552 177.205 99.628C176.293 96.8563 178.191 91.9082 181.933 87.7191C186.257 82.8829 193.616 80.0065 199.902 80.7826C207.621 81.7693 205.758 77.4902 197.903 76.0929C191.892 75.1127 184.261 77.8514 180.141 82.6201Z" fill="#3B3B3B"/>
<path d="M236.542 70.7741C235.545 72.2398 235.609 73.4703 236.764 75.2519C238.496 78.0952 240.58 78.2057 239.326 75.4327C238.243 72.8312 241.389 72.3649 243.805 74.869C244.997 76.0698 246.457 78.4335 247.065 80.2813C248.248 83.8743 250.601 85.1479 251.329 82.5192C252.509 77.8076 246.902 69.4129 242.189 68.5745C239.081 68.1182 238.363 68.3547 236.542 70.7741Z" fill="#3B3B3B"/>
<path d="M161.077 107.665C154.691 115.227 154.138 125.649 159.885 133.087C163.218 137.338 164.112 135.906 162.052 129.644C159.755 122.663 160.462 116.514 164.558 108.909C166.693 104.679 166.903 103.587 165.465 104.06C164.336 104.431 162.451 105.962 161.077 107.665Z" fill="#3B3B3B"/>
<path d="M265.477 91.2885C266.018 92.931 266.69 96.0094 266.988 98.3002C267.622 102.301 267.792 102.473 270.018 101.285C273.442 99.5897 273.369 92.105 269.996 89.4605C266.725 86.7822 264.329 87.7982 265.477 91.2885Z" fill="#3B3B3B"/>
<path d="M364.983 67.9893C363.163 70.4087 361.369 74.6395 360.914 77.4059L360.177 82.4268L363.415 84.6607L366.687 86.9973L364.137 92.3871C362.588 95.286 359.05 100.091 355.997 102.916C350.303 108.43 350.054 110.787 355.569 107.494C360.125 104.743 365.447 98.4412 368.65 91.9261C370.924 87.082 371.782 86.2309 375.991 84.846C379.687 83.63 381.572 82.0994 385.007 77.6699C389.403 72.0138 397.735 56.1886 396.643 55.6376C396.337 55.3972 393.28 59.2472 389.981 64.0873C383.76 73.1881 377.925 79.6588 375.256 80.5371C373.921 80.9762 373.821 80.3265 374.621 76.8779C376.187 69.5362 375.654 65.8433 372.516 64.2591C369.105 62.5371 368.729 62.7749 364.983 67.9893ZM371.402 69.5178C371.615 76.3878 369.406 82.1207 366.947 81.5644C364.591 80.9743 364.434 77.3853 366.742 72.6439C369.327 67.015 371.417 65.7585 371.402 69.5178Z" fill="#3B3B3B"/>
<path d="M154.235 144.958C153.925 145.401 154.327 147.659 155.036 149.814C155.982 152.689 157.308 154.3 159.731 155.437C163.175 157.262 166.902 156.832 167.423 154.613C167.528 153.895 167.291 153.518 166.675 153.721C164.724 154.363 161.385 151.821 158.769 147.676C156.188 143.633 155.199 143.048 154.235 144.958Z" fill="#3B3B3B"/>
<path d="M270.64 117.35C272.261 122.278 279.568 132.729 283.589 135.957C286.042 137.881 293.577 142.455 300.295 146.275C318.709 156.598 320.949 160.64 318.009 178.673C316.54 187.348 314.913 192.775 311.435 199.494C308.956 204.406 305.963 209.487 304.762 210.678C303.561 211.87 298.288 214.515 293.051 216.579C281.723 220.876 276.357 220.821 270.428 216.287C267.089 213.745 266.546 212.786 264.593 205.123C263.415 200.505 261.785 188.982 260.967 179.58C259.431 161.427 254.257 138.441 252.3 140.792C251.819 141.405 251.812 143.114 252.319 144.654C253.502 147.905 254.458 157.034 253.375 154.432C253.037 153.405 251.506 151.52 250.145 150.148L247.489 147.608L237.531 150.885C232.124 152.778 225.689 155.35 223.361 156.572C220.381 158.235 218.089 158.875 215.287 158.659C210.265 158.264 203.182 160.595 200.299 163.591C198.858 165.089 196.53 166.31 194.136 166.643C192.084 166.977 189.757 167.856 188.865 168.605C187.974 169.353 185.782 170.643 183.899 171.49C179.517 173.387 174.331 180.1 174.145 184.029C173.774 191.546 182.273 203.199 188.082 203.221C190.919 203.198 190.953 203.301 187.41 209.131C181.667 218.302 170.987 231.828 167.698 233.934C163.004 236.958 164.158 239.081 171.362 240.92C180.068 243.175 190.457 243.284 199.35 241.268C214.4 237.908 223.863 230.016 231.612 214.496C234.401 209.142 236.879 204.572 237.29 204.437C237.598 204.335 239.812 206.224 242.126 208.761L246.346 213.289L240.9 216.446C234.221 220.35 230.688 223.789 225.085 232.003C220.618 238.479 218.302 245.271 219.349 248.453C219.889 250.096 220.095 250.028 221.744 247.779C225.832 242.224 226.584 242.091 223.385 247.58C221.148 251.502 219.522 256.588 218.714 262.429C217.452 270.694 218.254 275.208 220.018 269.85C220.607 267.836 220.913 268.076 222.128 272.113C223.309 276.048 223.854 276.665 226.825 277.053C229.216 277.404 230.239 278.091 230.097 279.389C229.846 282.43 232.95 292.9 234.38 294.136C235.164 294.788 235.306 293.49 234.873 290.447C234.207 286.001 234.276 285.865 235.976 287.922C238.153 290.733 237.708 299.753 235.356 298.138C234.436 297.417 234.367 297.553 235.217 298.752C237.291 301.597 233.289 337.842 229.339 351.77C228.128 355.695 227.362 359.246 227.463 359.554C227.565 359.862 226.591 364.165 225.342 369.013C223.991 373.895 222.49 381.783 221.891 386.531C221.006 394.559 220.522 395.856 214.924 403.045C211.661 407.305 208.876 411.634 208.872 412.659C208.765 413.718 206.717 422.015 204.222 431.028C201.726 440.04 199.156 450.556 198.39 454.449C197.692 458.206 196.371 463.874 195.676 466.947C194.878 470.054 194.593 472.992 195.103 473.507C195.545 474.158 199.434 475.95 203.734 477.607L211.446 480.644L210.851 484.367C209.272 494.784 204.574 516.809 202.809 522.509C201.735 526.162 199.97 531.863 198.898 535.173C197.86 538.587 195.342 544.421 193.141 548.104C189.424 554.788 188.864 558.271 191.738 557.325C194.202 556.515 204.343 532.358 209.778 514.3C211.301 509.248 212.874 500.198 213.307 494.253C213.774 488.411 214.755 482.058 215.514 480.215C218.103 473.561 224.346 441.016 226.956 420.248L229.669 399.104L236.435 390.279C240.179 385.406 244.815 379.785 246.804 377.879C248.657 375.904 250.374 373.86 250.41 373.279C250.521 371.195 256.523 365.579 257.888 366.268C259.798 367.232 261.206 365.29 260.43 362.928C259.822 361.081 261.541 358.353 268.029 350.757C269.265 349.327 278.918 336.48 282.216 331.982C283.556 330.175 283.795 330.21 284.673 332.88C286.26 338.046 289.835 367.929 290.962 385.876C291.575 395.344 291.889 411.169 291.681 420.908C291.073 445.683 289.409 495.948 288.735 511.188C287.919 527.725 287.443 562.582 288.022 562.96C289.762 563.753 294.422 525.358 296.07 496.828C296.508 489.516 296.911 482.444 297.053 481.146C297.195 479.847 297.463 472.364 297.699 464.436C297.832 456.542 298.329 442.84 298.602 433.99C299.781 402.997 296.624 362.282 290.948 336.39C288.026 323.016 287.819 323.767 294.692 313.883C298.163 308.872 303.148 301.202 305.796 296.804C311.678 287.018 314.567 282.313 315.668 280.472C316.184 279.619 320.522 271.366 325.411 262.021C332.677 247.798 334.532 245.139 336.102 245.76C339.617 247.107 341.441 243.662 340.439 237.848C339.301 231.624 339.723 228.413 341.423 230.812C345.128 235.85 344.889 235.815 346.545 231.857C347.65 228.991 347.658 226.94 346.374 223.039C345.462 220.268 345.232 217.84 345.745 217.671C346.361 217.469 346.907 217.744 347.11 218.36C347.718 220.208 349.706 218.644 349.544 216.422C349.38 214.541 349.757 214.304 351.327 214.925C353.545 215.788 354.579 213.399 353.397 209.806C352.586 207.343 353.688 205.16 354.946 206.908C355.354 207.456 356.282 206.127 357.042 203.942C357.666 201.689 358.733 199.745 359.246 199.576C359.759 199.408 361.12 201.122 362.205 203.381C364.207 207.046 364.377 207.217 365.104 204.93C365.691 203.258 365.222 200.796 363.664 197.099L361.463 191.793L364.191 193.512C385.632 207.846 402.897 223.668 414.864 239.981C438.253 271.992 443.923 299.251 433.548 330.994C430.263 341.063 421.48 358.629 414.709 368.48C408.969 376.967 392.288 395.768 389.824 396.578C389.003 396.849 383.952 394.984 378.87 392.333C371.605 388.579 369.526 387.102 370.01 385.805C370.389 384.884 370.882 381.195 371.1 377.71C371.319 374.225 372.464 360.764 373.779 347.817C376.662 318.198 377.51 302.105 376.557 292.293C375.575 281.011 365.943 253.121 363.376 253.965C361.939 254.438 362.809 259.158 366.458 270.245C370.612 282.871 371.74 291.83 370.997 307.206C370.468 320.122 368.657 337.783 367.441 343.076C366.955 345.056 366.775 347.277 367.012 347.996C367.248 348.714 366.819 353.634 366.217 359.065C364.663 371.978 363.892 385.884 364.488 390.807C365.021 394.5 362.161 409.321 358.211 423.25C357.207 426.766 356.544 430.283 356.746 430.899C357.388 432.85 355.162 434.037 349.691 434.7C341.758 435.831 333.288 434.636 331.758 432.409C329.381 428.641 328.954 432.877 330.797 442.282C333.58 456.27 334.789 470.663 334.854 489.186C334.864 513.075 334.798 512.528 340.769 515.114C350.936 519.391 364.644 518.521 383.533 512.306C395.988 508.321 399.758 505.602 390.25 507.479C383.443 508.922 364.296 511.24 358.246 511.525C356.093 511.55 351.446 511.259 348.099 510.768C340.857 509.851 340.416 509.2 340.624 499.461C341.033 482.033 338.013 450.033 335.277 441.718L334.331 438.844L340.445 439.79C348.266 441.085 359.931 438.157 368.701 432.654C372.092 430.514 375.861 428.137 377.094 427.389C378.327 426.642 380.316 425.078 381.619 423.853C382.82 422.661 387.447 419.091 391.868 415.93C401.566 409.098 403.149 406.301 395.24 409.928C392.296 411.352 388.905 413.15 387.57 413.931C385.652 415.017 385.895 414.027 389.129 408.298C391.263 404.41 393.463 401.069 393.977 400.901C394.387 400.765 398.572 396.886 403.134 392.426C410.27 385.414 424.182 366.842 424.948 363.291C425.19 362.642 425.773 361.995 426.389 361.793C427.21 361.522 431.366 373.807 441.054 404.978C448.617 428.999 455.129 450.52 455.565 452.88C457.612 462.559 465.751 487.641 466.778 487.303C467.394 487.101 467.46 487.648 466.978 488.603C466.427 489.694 467.3 493.73 469.394 500.095C474.597 515.562 474.387 508.009 468.688 479.28C466.511 467.823 464.02 458.175 453.239 417.807C448.725 400.975 438.35 370.827 434.282 362.267L430.518 354.632L434.242 345.897C445.38 320.275 447.493 295.232 440.231 273.161C430.908 244.828 406.723 215.241 377.576 196.503C368.508 190.727 365.68 188.358 364.87 185.894L363.925 182.678L367.982 185.325L372.141 187.938L371.948 184.93C371.852 183.255 370.734 180.551 369.544 179.009C366.722 175.273 366.553 174.759 368.6 175.792C371.328 177.17 371.947 176.284 370.866 172.999C370.157 170.843 368.454 169.128 365.419 167.51C362.963 166.27 359.451 164.24 357.576 163.037L354.235 160.837L356.803 159.65C359.953 158.159 359.581 157.03 355.452 155.544C351.562 154.094 351.189 153.306 353.96 152.394C357.451 151.246 354.792 149.39 349.393 149.232C344.438 149.042 344.405 148.94 346.121 146.896C349.04 143.319 347.607 142.766 341.924 145.205C336.619 147.406 336.516 147.44 337.278 144.914C337.727 143.514 337.904 141.977 337.769 141.566C337.397 140.437 331.568 145.541 327.893 150.277C326.176 152.321 324.634 153.511 324.431 152.895C324.262 152.382 323.34 152.344 322.414 152.99C321.146 153.976 320.055 153.425 317.74 150.887C316.107 149.035 308.232 144.118 300.217 139.815C285.45 131.932 278.67 126.54 275.55 120.172C273.211 115.139 269.154 112.833 270.64 117.35ZM213.579 167.299C217.201 167.586 217.95 168.136 218.93 171.113C219.572 173.064 221.677 176.694 223.58 179.367C226.708 183.686 227.696 184.27 232.411 184.767C237.569 185.231 237.775 185.164 242.813 181.458C246.377 178.806 248.884 175.706 251.569 170.727C253.464 166.804 255.252 163.94 255.353 164.248C255.454 164.556 255.611 168.145 255.665 172.109C255.786 184.926 257.869 203.012 259.794 208.864C260.842 212.046 263.013 216.224 264.68 218.178C267.844 221.916 276.681 225.607 279.966 224.526C282.84 223.58 282.729 225.664 279.852 227.293C277.968 228.482 276.66 231.075 275.271 236.537C272.914 245.277 272.675 245.242 266.776 232.848C259.928 218.604 245.979 202.146 238.097 198.938C233.149 197.039 231.643 197.648 229.883 201.982C222.739 220.033 216.764 227.46 205.569 232.509C199.339 235.355 188.154 237.67 181.799 237.372L178.689 237.258L180.887 234.601C183.221 232.012 183.682 227.537 181.734 227.495C179.445 227.452 180.238 225.712 186.287 216.782C194.777 204.204 200.072 187.103 198.848 176.469C198.518 173.392 198.968 171.993 200.647 170.872C204.553 168.221 209.138 166.94 213.579 167.299ZM231.632 174.101C232.381 174.651 232.481 175.301 231.968 175.47C230.428 175.976 227.028 171.52 225.644 166.97L224.328 162.624L227.418 167.865C229.047 170.742 231.018 173.621 231.632 174.101ZM187.094 193.648C188.354 194.713 188.252 194.746 186.307 194.021C184.737 193.4 183.649 191.824 182.468 187.889L180.951 182.586L183.256 187.516C184.579 190.153 186.311 192.996 187.094 193.648ZM233.409 235.863C232.961 236.921 231.863 238.078 231.042 238.349C229.707 238.788 229.708 238.446 230.946 236.674C232.87 233.879 234.41 233.372 233.409 235.863ZM287.023 246.664C287.293 247.486 287.119 248.339 286.503 248.542C285.99 248.711 285.548 248.06 285.586 247.137C285.726 246.181 285.9 245.327 286.105 245.26C286.311 245.192 286.753 245.843 287.023 246.664ZM287.614 252.955C287.576 253.878 287.167 253.671 286.795 252.542C286.321 251.446 286.426 250.729 286.869 251.038C287.278 251.245 287.685 252.135 287.614 252.955ZM327.54 241.524C327.088 243.607 327.054 243.504 326.31 241.587C325.533 239.226 326.259 236.939 327.313 238.413C327.721 238.961 327.818 240.295 327.54 241.524ZM315.067 258.939C314.919 261.946 313.774 266.419 312.398 268.805C304.07 283.605 287.394 309.685 285.855 310.192C284.931 310.496 280.555 293.049 280.739 289.803C280.847 288.403 281.156 287.96 281.359 288.576C282.611 291.69 284.742 288.486 284.349 284.179C284.154 281.512 284.679 278.267 285.402 277.006C286.538 274.925 286.743 274.858 288.446 276.232C289.877 277.467 290.147 278.289 289.491 280.097C289.041 281.497 288.931 283.581 289.336 284.813C290.316 287.79 293.463 286.982 295.083 283.263C296.635 279.681 302.57 273.86 303.66 274.752C306.147 276.778 311.925 267.368 312.602 260.092C313.064 255.616 314.066 252.784 315.021 253.266C315.157 253.335 315.216 255.932 315.067 258.939ZM298.121 266.563C298.695 268.308 297.76 271.688 296.907 271.172C295.85 270.724 295.765 265.973 296.792 265.635C297.305 265.466 297.919 265.947 298.121 266.563ZM275.931 286.948C276.562 291.633 277.965 300.045 279.106 305.586C280.311 312.016 280.703 316.665 279.979 318.269C279.152 320.248 274.169 327.234 263.144 341.443C249.713 359.059 232.821 379.294 232.105 378.847C230.98 378.194 234.649 348.544 237.184 337.925C240.104 325.36 242.553 310.674 243.131 302.406C243.384 299.023 244.002 298.137 245.78 298.007C247.558 297.877 247.902 297.195 247.437 293.708L246.906 289.673L249.97 292.76C253.34 296.088 257.776 297.814 260.445 296.936C261.677 296.531 261.885 295.78 261.002 294.478C260.084 293.073 260.326 292.424 261.866 291.918C262.995 291.546 264.196 290.355 264.713 289.161C265.369 287.352 265.711 287.353 267.55 289.137C269.525 290.99 269.594 290.854 268.927 286.409C268.393 283.057 268.638 281.726 269.972 281.286C270.999 280.949 272.2 279.757 272.614 278.597C273.925 275.321 274.805 277.648 275.931 286.948ZM255.803 286.631C256.073 287.453 255.798 287.998 255.081 287.893C254.466 287.754 253.615 286.896 253.345 286.075C253.074 285.254 253.453 284.674 254.067 284.813C254.784 284.919 255.533 285.81 255.803 286.631ZM376.128 394.372C387.489 399.508 387.186 398.243 380.609 411.101C375.236 421.743 374.446 422.8 368.553 426.673C364.99 428.983 361.805 430.714 361.498 430.473C361.089 430.267 361.576 427.945 362.51 425.248C364.963 418.184 367.014 409.203 368.281 399.913C368.981 395.473 369.747 391.921 370.191 391.889C370.669 391.959 373.297 393.029 376.128 394.372Z" fill="#3B3B3B"/>
<path d="M238.039 134.448C229.393 143.096 226.861 144.043 220.858 141.012C216.492 138.808 214.746 139.382 217.847 141.889C220.3 143.812 220.3 143.812 215.639 147.28C210.155 151.36 206.906 151.86 200.286 149.374C196.532 147.992 195.404 148.022 194.921 149.319C193.23 153.516 203.976 158.513 210.34 156.419C214.652 155 219.075 151.155 220.661 147.675C221.764 145.151 222.175 145.016 226.515 145.067C230.274 145.081 231.745 144.711 233.974 142.84C237.814 139.642 247.907 127.788 247.603 126.864C247.164 125.53 246.17 126.312 238.039 134.448Z" fill="#3B3B3B"/>
<path d="M150.911 164.938C151.958 168.12 156.455 171.76 160.178 172.355C164.037 173.02 174.746 169.951 175.232 167.971C175.371 167.356 174.416 166.874 173.014 167.108C159.953 168.561 158.792 168.488 154.632 165.875C151.462 163.846 150.472 163.603 150.911 164.938Z" fill="#3B3B3B"/>
<path d="M38.6815 243.962C38.2994 245.567 38.5227 249.703 39.3294 253.192C40.1023 256.578 41.078 260.581 41.3455 262.085C42.2496 266.907 48.6264 279.372 52.9103 285.13C61.0375 295.653 72.4292 301.575 86.0289 302.106C91.3253 302.298 94.0268 301.864 98.8881 299.695L105.05 296.985L108.799 299.734C119.191 307.805 137.211 314.163 150.742 314.83C155.252 315.053 154.024 314.433 145.66 312.179C134.462 309.265 119.28 302.542 113.147 297.734L107.831 293.681L109.627 288.767C113.183 279.519 111.924 269.125 107.013 266.645C103.602 264.923 102.986 265.126 100.648 268.739C97.7268 273 97.2454 282.601 99.6139 288.762C101.509 293.486 101.439 293.964 99.0742 295.766C93.4188 300.016 80.4337 299.624 70.3362 294.869C62.8999 291.286 58.7445 287.647 52.7963 279.251C44.0948 266.983 37.8199 245.838 41.6639 241.615C42.9686 240.048 42.9686 240.048 41.2923 240.486C40.2657 240.824 39.2001 242.426 38.6815 243.962ZM106.547 272.145C107.797 275.944 107.464 282.538 105.981 285.984L104.463 289.669L103.111 285.905C101.658 281.491 102.688 271.481 104.639 270.839C105.357 270.603 106.243 271.222 106.547 272.145Z" fill="#3B3B3B"/>
<path d="M380.367 226.075C378.71 230.375 384.646 232.859 386.713 228.765C387.608 226.992 387.474 226.239 386.18 225.072C383.864 223.218 381.401 223.687 380.367 226.075Z" fill="#3B3B3B"/>
<path d="M476.364 226.344C471.191 229.639 467.142 233.929 467.682 235.572C467.885 236.188 468.43 236.463 469.046 236.26C470.484 235.787 486.965 224.676 490.462 221.819L493.582 219.199L487.422 221.226C484.069 222.443 479.105 224.645 476.364 226.344Z" fill="#3B3B3B"/>
<path d="M326.543 296.234C326.363 298.455 328.033 299.726 330.394 298.949C332.345 298.307 332.9 296.191 331.472 294.271C330.282 292.729 326.653 294.15 326.543 296.234Z" fill="#3B3B3B"/>
<path d="M410.362 281.965C411.514 284.43 415.068 284.512 416.239 282.193C417.203 280.283 413.93 278.288 411.261 279.166C409.824 279.639 409.513 280.424 410.362 281.965Z" fill="#3B3B3B"/>
<path d="M328.291 347.88C327.427 350.44 329.259 353.933 331.888 354.66C334.346 355.217 337.301 351.059 336.356 348.184C335.14 344.489 329.843 344.297 328.291 347.88Z" fill="#3B3B3B"/>
<path d="M416.774 400.339C416.358 401.841 416.181 403.378 416.385 403.652C423.191 411.197 425.11 409.769 422.76 398.824C422.089 395.746 417.881 396.789 416.774 400.339Z" fill="#3B3B3B"/>
<path d="M244.532 461.907C244.49 463.854 247.215 466.257 248.96 465.683C250.397 465.21 247.683 460.073 246.077 460.033C245.291 460.064 244.569 460.984 244.532 461.907Z" fill="#3B3B3B"/>
<path d="M413.783 440.347C413.779 441.372 415.104 443.325 416.841 444.801C419.464 446.896 420.079 447.035 420.153 445.532C420.303 442.183 417.79 438.004 415.738 438.338C414.747 438.437 413.82 439.424 413.783 440.347Z" fill="#3B3B3B"/>
<path d="M395.61 464.643C395.464 466.967 398.464 468.824 400.928 468.013C403.392 467.202 403.02 466.073 399.542 464.146C396.097 462.321 395.653 462.354 395.61 464.643Z" fill="#3B3B3B"/>
<path d="M219.005 558.592C219.41 559.824 224.364 560.356 224.915 559.265C225.362 558.549 220.72 556.89 219.488 557.296C219.078 557.431 218.836 558.079 219.005 558.592Z" fill="#3B3B3B"/>
<path d="M447.402 504.487C447.222 507.049 448.995 507.945 452.28 506.864C455.873 505.681 456.496 503.77 453.767 502.392C451.175 501.084 447.479 502.3 447.402 504.487Z" fill="#3B3B3B"/>
</svg>
