<svg width="848" height="1037" viewBox="0 0 848 1037" fill="none" xmlns="http://www.w3.org/2000/svg">
<path d="M298.614 88.395C282.115 96.9864 266.119 116.702 259.388 137.227C253.41 155.27 252.117 186.332 255.887 220.224C256.421 225.475 257.124 232.78 257.475 236.433C257.689 240.127 258.402 245.475 259.055 248.134C259.57 250.835 259.645 254.571 259.318 256.474C258.949 258.239 259.3 261.892 260.049 264.372C261.256 268.367 261.652 273.66 262.374 291.484C262.504 294.903 262.837 296.005 263.732 294.983C264.53 294.141 264.834 294.65 264.548 296.691C264.265 300.234 264.726 303.253 267.855 318.094C269.272 324.281 269.933 331.449 269.497 333.986C269.061 336.523 269.412 340.176 270.449 342.118C271.487 344.06 271.919 346.485 271.246 347.741C270.38 349.355 270.726 350.003 272.574 350.647C274.423 351.292 274.727 351.801 273.653 352.727C272.772 353.294 272.237 354.508 272.445 355.197C272.695 356.023 273.425 355.953 273.989 355.332C275.31 353.73 275.351 353.868 279.607 373.932C283.696 393.445 283.922 396.684 281.855 397.308C280.615 397.683 280.491 397.27 281.356 395.655C282.029 394.399 281.844 391.298 280.916 388.722L279.28 383.803L279.289 388.311C279.206 396.004 281.459 406.449 282.974 405.991C283.801 405.742 284.349 404.073 284.222 402.157C283.998 400.42 285.163 404.278 286.843 410.837C288.386 417.437 289.307 423.474 288.784 424.233C288.441 425.088 289.039 428.065 290.327 430.833C291.655 433.74 292.129 436.303 291.331 437.145C289.776 438.968 291.732 445.444 293.661 444.861C294.488 444.611 295.096 445.63 295.099 447.133C295.04 452.413 298.678 466.95 307.75 496.986C312.785 513.658 317.195 528.263 317.666 529.323C318.137 530.384 319.343 534.379 320.233 538.321C321.996 545.155 321.859 545.197 319.479 540.803C318.138 538.352 315.054 533.119 312.565 529.36C310.215 525.56 305.815 516.966 302.812 510.506C299.904 503.866 296.61 496.442 295.406 493.949C286.37 475.479 282.274 467.394 277.973 460.123C272.235 450.58 267.019 440.278 263.1 430.787C261.521 427.054 258.281 419.313 255.624 413.5C247.705 395.745 225.953 344.13 221.285 332.159C219.499 327.737 216.662 321.828 215.057 319.005C213.315 316.223 212.249 313.689 212.4 313.192C212.592 312.833 211.9 311.539 210.616 310.273C209.511 309.103 206.482 303.553 203.866 297.878C201.429 292.299 198.563 285.798 197.622 283.677C192.182 271.638 183.606 256.186 176.253 245.778C164.311 228.637 139.988 203.357 131.018 198.549C123.166 194.455 101.762 189.793 93.1885 190.278C81.6927 191.044 64.7512 199.167 56.9088 207.549C50.2908 214.51 35.551 242.866 37.2645 245.055C37.9691 245.895 37.6963 247.481 36.5811 248.269C35.4659 249.056 34.8343 250.45 35.084 251.277C35.3337 252.103 35.1885 255.605 34.5883 259.094C33.2817 268.209 36.729 291.073 43.0178 314.883C46.7813 329.834 48.7629 335.399 49.8652 335.066C50.8296 334.775 51.4381 335.794 51.4279 337.752C51.3271 342.894 61.8251 369.192 63.2834 367.548C64.1776 366.527 64.2608 366.802 63.6163 368.651C62.4234 372.168 74.5258 401.289 78.5011 403.997C79.3019 404.658 80.4929 407.605 80.8702 410.348C81.3177 413.821 82.9091 417.099 85.3818 419.811C87.454 422.192 90.2336 426.915 91.4533 430.456C92.8108 433.955 94.0434 437.041 94.306 437.412C94.5686 437.784 94.9561 438.569 95.0263 439.3C95.055 439.892 95.9806 440.966 96.9608 441.722C99.7765 443.578 102.972 449.679 106.077 458.965C107.63 463.608 109.871 468.043 110.852 468.799C111.97 469.514 114.445 473.728 116.369 478.108C118.156 482.53 120.618 487.199 121.765 488.507C124.362 491.631 136.818 517.939 136.407 519.566C136.161 520.242 136.92 520.765 138.147 520.845C140.601 521.006 145.071 530.331 142.866 530.997C142.178 531.205 142.482 531.714 143.792 532.07C144.965 532.468 145.89 533.541 145.589 534.534C145.287 535.528 146.463 537.428 147.926 538.79C150.992 541.472 156.647 550.74 160.15 558.853C162.836 565.259 169.404 576.054 171.461 577.388C172.441 578.144 174.474 581.89 176.094 585.761C177.618 589.811 181.534 597.8 184.509 603.667C187.526 609.672 189.783 615.154 189.619 616.106C189.414 616.92 190.534 619.137 192.261 620.871C193.987 622.605 195.329 625.056 195.249 626.283C195.21 627.648 195.706 627.799 196.6 626.777C197.495 625.755 198.158 626.457 198.714 629.296C199.105 631.584 200.792 634.682 202.298 636.182C203.761 637.544 205.007 640.175 205.093 641.953C205.137 643.594 206.341 646.087 207.626 647.353C208.91 648.618 210.735 651.676 211.76 654.072C213.325 658.26 213.037 658.798 205.22 666.271C200.817 670.608 195.961 676.434 194.423 679.305C192.926 682.313 190.987 684.853 190.16 685.102C189.471 685.311 189.032 686.345 189.365 687.447C190.03 689.652 189.225 693.955 186.335 704.299C185.171 708.409 184.35 711.664 184.805 711.677C185.08 711.594 184.958 712.683 184.465 714.035C183.971 715.387 183.745 720.116 184.029 724.541C184.313 728.966 184.737 734.851 184.797 737.539C185.079 740.461 185.495 741.839 186.155 741.038C187.187 739.975 188.092 744.964 187.799 750.465C187.719 751.692 188.054 754.297 188.361 756.309C190.322 765.79 192.136 777.27 191.85 779.311C191.77 780.538 193.442 790.557 195.682 801.457C197.784 812.399 199.899 822.886 200.206 824.899C202.073 836.062 205.049 849.897 208.102 861.003C209.907 867.975 211.27 874.479 210.969 875.472C210.805 876.424 211.414 877.443 212.227 877.648C213.358 877.908 214.978 881.779 216.297 886.643C217.574 891.369 220.887 901.343 223.865 908.713C230.194 924.693 230.735 926.484 230.731 931.447C230.796 937.14 232.487 941.742 235.066 942.316C236.238 942.714 236.542 943.223 235.853 943.431C234.889 943.723 235.654 947.25 238.298 953.518C240.514 958.863 242.191 963.919 242.165 964.829C242.236 965.559 244.015 973.441 246.181 982.109C249.362 995.13 250.636 998.354 253.301 1000.71C257.264 1003.87 262.073 1002.87 260.95 999.148C259.576 994.601 262.056 993.852 265.73 997.554C267.498 999.426 269.321 1000.98 269.596 1000.9C271.112 1000.44 274.366 993.292 273.386 992.536C272.723 991.834 270.037 985.428 267.376 978.113C264.674 970.66 260.547 960.48 258.002 955.536C252.84 944.916 225.616 856.766 226.533 853.331C226.889 852.021 225.194 844.414 223.056 836.34C220.738 828.169 218.236 816.897 217.482 811.412C214.7 790.752 211.056 773.21 206.546 757.282C203.979 748.284 202.213 739.947 202.431 738.679C202.787 737.368 202.933 733.867 202.693 731.082C202.089 725.1 202.423 711.769 203.437 708.155C203.655 706.887 204.351 703.218 204.663 700.268C205.112 697.275 206.071 693.979 207.007 693.095C207.943 692.211 208.353 690.583 208.104 689.757C207.521 687.828 218.87 674.628 222.327 673.132C226.157 671.374 231.717 666.388 233.31 663.2C234.23 661.268 237.947 658.642 241.914 656.843C246.942 654.573 248.25 653.426 246.622 653.015C244.636 652.413 244.69 652.095 247.033 651.388C248.548 650.93 250.865 651.133 251.941 651.71C253.735 652.672 254.699 652.38 256.254 650.558C257.382 649.315 260.59 646.993 263.317 645.568C266.223 644.239 272.984 640.243 278.506 636.621C285.831 632.003 292.842 628.833 304.236 625.241C312.875 622.482 320.52 619.421 321.139 618.483C323.283 615.129 385.735 601.38 396.558 601.87C400.652 601.986 422.045 600.637 430.494 599.739C440.362 598.563 461.207 598.883 469.453 600.302C485.091 602.796 498.05 617.826 503.935 639.803C507.017 651.501 507.059 651.639 502.81 664.95C499.603 675.24 497.433 679.504 493.318 683.303C490.414 686.134 487.11 688.635 485.87 689.01C484.768 689.343 483.419 690.352 482.8 691.29C481.275 693.706 459.272 708.469 444.179 717.237C431.964 724.084 403.727 737.122 376.866 748.241C361.245 754.763 352.958 761.175 354.331 765.722C355.288 768.891 387.451 784.285 394.759 785.085C399.295 785.67 438.504 809.46 448.473 817.575C469.376 835.017 493.071 863.193 508.987 889.508C515.209 899.657 521.147 905.38 524.592 904.34C525.418 904.09 527.04 901.496 528.262 898.571C529.442 895.508 531.144 891.687 532.106 889.893C533.754 886.388 533.86 884.251 532.209 886.253C531.508 886.916 530.707 886.256 530.47 884.974C529.276 880.524 516.751 861.454 511.101 855.191C507.261 850.939 506.185 850.362 507.748 853.047L509.823 856.931L505.514 853.12C502.67 850.671 501.149 848.124 500.896 845.795C500.878 843.244 498.197 839.844 491.279 833.364C486.003 828.342 480.577 823.816 479.225 823.323C477.832 822.691 476.368 821.329 476.035 820.227C475.702 819.124 471.407 814.859 466.423 810.801C461.439 806.744 457.227 802.753 456.935 801.789C456.644 800.825 455.747 800.344 455.058 800.552C453.405 801.051 444.849 796.118 444.17 794.368C444.003 793.817 441.505 792.016 438.497 790.519C435.627 788.98 432.949 787.083 432.699 786.256C432.491 785.567 431.456 785.128 430.492 785.419C429.527 785.71 426.01 784.517 422.643 782.828C419.276 781.139 413.965 778.984 410.944 777.942C407.923 776.9 402.97 774.937 399.824 773.482C396.816 771.985 393.795 770.943 393.244 771.109C392.555 771.317 391.85 770.478 391.518 769.375C391.185 768.273 389.487 767.132 387.722 766.763C383.736 766.012 383.016 764.125 386.031 762.162C387.147 761.374 396.032 757.939 405.648 754.433C416.27 750.774 425.265 746.705 428.197 744.466C431.033 742.407 434.93 739.877 437.009 738.797C439.736 737.373 440.121 736.655 438.452 736.107C437.004 735.792 438.298 735.101 441.909 734.611C446.251 734.052 447.036 733.665 445.187 733.02C443.022 732.321 442.938 732.045 445.143 731.38C446.383 731.005 447.652 731.223 447.901 732.05C448.109 732.739 450.108 732.887 452.451 732.179C455.069 731.389 456.142 730.463 455.354 729.348C454.691 728.646 455.474 726.756 457.015 725.388C459.396 723.316 459.81 723.191 459.716 724.873C459.581 726.418 460.215 726.527 461.565 725.518C462.68 724.73 463.353 723.474 463.187 722.923C463.02 722.372 465.388 720.755 468.57 719.343C478.391 715.024 493.632 704.256 496.216 699.868C497.604 697.494 500.341 694.112 502.171 692.206C505.68 688.891 505.818 688.849 505.686 691.896C505.64 696.721 513.871 705.06 524.497 710.872C532.611 715.337 535.866 716.158 546.192 716.498C552.837 716.596 560.225 716.169 562.705 715.42C568.354 713.713 570.619 715.736 567.856 720.028C566.577 721.768 565.865 724.388 566.323 725.904C566.739 727.282 566.167 731.363 565.292 734.935C563.21 742.48 565.53 752.153 570.364 756.707C572.049 758.303 573.832 761.223 574.553 763.11C576.175 768.483 586.204 779.287 592.399 782.377C595.27 783.916 597.947 785.813 598.197 786.64C598.863 788.844 611.069 791.924 623.01 793.129L633.502 794.019L636.558 806.627C638.184 813.503 639.966 822.888 640.525 827.23C641.085 831.571 642.575 839.991 643.73 845.807C645.023 851.581 646.004 860.305 645.916 864.993C645.888 872.368 648.177 879.946 651.812 885.012C652.033 885.246 652.283 886.073 652.574 887.037C652.948 888.277 653.362 888.153 654.227 886.538C654.9 885.282 656.621 884.011 658.137 883.553C666.5 880.877 666.709 867.132 658.745 839.769C655.874 830.262 651.96 815.808 649.781 807.596L645.838 792.549L657.11 790.047C672.227 786.834 677.072 782.965 683.609 769.264C684.68 766.836 687.385 761.358 689.556 757.094C691.726 752.83 694.195 746.071 695.042 741.906C699.316 719.717 701.791 701.529 701.829 692.196C701.86 686.323 702.124 680.229 702.218 678.547C703.358 668.882 697.991 636.674 691.762 615.552C688.238 603.386 684.621 592.902 683.862 592.379C683.061 591.719 681.069 588.111 679.27 584.144C672.459 569.061 661.266 554.4 652.71 549.467C650.832 548.229 649.093 546.951 648.968 546.537C648.802 545.986 646.8 544.335 644.564 542.906C638.436 539.043 624.275 537.457 616.559 539.787L610.084 541.743L609.399 536.988C609.243 534.479 608.527 527.629 607.911 522.102C606.755 508.318 596.19 468.359 593.375 466.503C592.077 465.692 589.544 460.293 587.48 454.452C571.848 410.16 558.289 398.618 524.035 400.694C520.162 400.812 509.937 403.298 501.299 406.057C486.46 410.689 485.028 411.423 478.56 417.886C474.721 421.602 471.173 426.281 470.528 428.13C469.884 429.978 468.621 432.765 467.851 434.201C466.986 435.815 465.601 439.691 464.738 442.809L463.163 448.546L462.187 442.827C461.685 439.671 460.944 433.731 460.647 429.761C460.171 425.695 459.026 417.922 458.05 412.203C456.937 406.525 456.404 401.274 456.609 400.46C456.814 399.646 455.339 392.274 453.298 384.02C451.256 375.766 449.82 367.029 450.064 364.85C450.266 362.534 449.403 357.683 448.1 353.866C446.839 350.188 445.309 343.132 444.763 338.336C441.177 307.545 440.256 301.509 436.801 282.105C435.227 273.409 433.695 264.851 433.25 262.881C432.943 260.868 430.579 249.555 428.048 237.69C425.559 225.963 423.928 216.081 424.479 215.915C425.168 215.707 424.457 211.862 423.043 207.178C421.532 202.672 420.751 198.097 421.328 197.021C421.809 196.124 421.086 192.734 419.674 189.552C417.971 185.405 417.51 182.387 418.456 179.546C419.826 174.622 419.672 173.616 417.621 175.287C415.432 177.001 413.672 171.669 415.528 168.853C416.669 167.156 416.599 166.425 415.109 165.973C414.116 165.671 411.944 161.967 410.337 157.641C408.689 153.178 403.537 140.601 398.747 129.719C391.021 111.605 389.542 109.195 383.286 103.417C370.513 91.4883 350.878 82.2329 335.353 80.6073C325.866 79.5633 308.779 83.2204 298.614 88.395ZM313.775 101.257C334.879 100.446 363.018 116.454 374.979 136.146C376.458 138.555 379.615 146.022 382.109 152.786C384.561 159.412 387.068 165.721 387.814 166.699C388.381 167.58 391.692 176.052 395.018 185.572C398.44 194.912 402.109 203.577 403.173 204.609C404.319 205.916 404.902 207.845 404.478 209.928C403.946 212.644 412.69 244.583 420.481 268.391C421.451 271.105 421.985 276.356 421.743 280.037C421.64 283.677 422.317 291.892 423.459 298.162C424.601 304.433 426.177 314.631 427.002 320.847C427.689 327.105 429.471 336.489 430.831 341.491C432.191 346.493 432.946 351.978 432.631 353.426C432.359 355.012 433.277 359.546 434.621 363.5C435.828 367.496 437.675 374.606 438.497 379.319C442.815 403.574 447.183 432.474 448.544 445.444C449.455 453.438 452.226 468.087 454.808 478.132C457.349 488.039 460.255 501.144 461.272 507.001C462.151 512.9 463.866 523.057 464.953 529.644C465.999 536.094 466.756 543.082 466.746 545.04C466.556 546.901 468.107 558.01 470.058 569.448C472.956 586.013 473.295 590.121 471.584 589.435C467.804 587.87 446.941 585 444.598 585.707C442.394 586.373 431.655 586.158 425.394 585.343C422.402 584.893 418.474 585.328 407.173 587.237C404.472 587.752 397.622 588.468 391.874 588.851C379.551 589.866 369.353 591.443 361.817 593.869C358.785 594.785 353.438 595.498 349.798 595.394C341.926 595.216 341.789 595.257 343.239 597.074C344.207 598.286 339.096 600.28 320.041 605.885C306.496 609.825 291.645 614.911 286.893 617.098C282.141 619.285 277.209 621.376 275.969 621.751C274.592 622.167 273.697 623.188 273.905 623.877C274.155 624.704 271.662 625.908 268.451 626.727C260.887 628.561 251.232 633.431 251.731 635.085C251.939 635.774 249.722 636.894 246.924 637.589C244.031 638.463 239.141 640.691 236.126 642.654C229.351 647.106 227.24 646.089 222.534 635.483C220.872 631.475 218.467 627.991 217.336 627.731C216.163 627.334 213.925 624.402 212.471 621.082C211.018 617.762 208.363 613.452 206.87 611.497C203.347 607.299 201.935 604.117 197.915 591.8C196.154 586.468 194.867 583.7 195.091 585.437C195.218 587.352 194.808 588.98 193.981 589.23C193.154 589.479 192.379 587.909 192.085 585.442C191.874 583.251 191.029 580.95 190.27 580.427C186.999 578.559 181.799 569.304 179.523 561.271C177.568 554.796 177.001 553.914 177.173 557.471C177.261 560.752 177.111 561.248 176.211 559.265C175.616 557.791 174.937 556.041 174.908 555.448C174.838 554.718 173.454 552.129 171.933 549.581C166.099 540.218 159.169 527.727 158.974 526.583C158.945 525.99 158.35 524.516 157.603 523.539C156.857 522.561 154.34 518.21 152.002 513.954C149.665 509.699 145.848 503.034 143.497 499.233C141.147 495.433 137.548 487.499 135.345 481.699C133.142 475.899 130.443 469.949 129.117 468.545C127.266 466.398 127.253 466.853 129.052 470.82C130.34 473.588 131.047 475.931 130.771 476.014C129.807 476.305 124.152 467.038 118.602 455.633C115.544 449.491 111.574 441.819 109.803 438.445C107.936 435.25 105.541 429.809 104.405 426.544C101.828 419.505 100.473 417.508 98.6817 418.049C96.7528 418.632 102.263 431.401 110.672 446.301C114.047 452.499 117.451 459.289 118.075 461.356C118.658 463.284 120.941 467.857 123.208 471.382C125.476 474.907 128.989 481.063 131.064 484.946C133.001 488.872 138.118 497.851 142.198 504.888C146.415 511.883 151.049 520.256 152.64 523.534C154.094 526.854 157.344 532.638 159.557 536.48C166.859 548.708 187.052 584.707 188.976 589.087C192.575 597.021 188.434 593.762 183.992 585.03C181.488 580.223 178.792 575.775 178.033 575.253C177.232 574.593 175.682 571.452 174.504 568.049C173.368 564.784 171.459 561.452 170.479 560.695C169.361 559.98 168.669 558.686 168.874 557.872C169.218 557.017 168.651 556.135 167.658 555.834C166.844 555.629 165.281 552.943 164.407 550.05C163.533 547.157 161.708 544.1 160.315 543.468C158.879 542.699 157.717 540.343 157.244 537.78C156.908 535.175 155.566 532.724 154.131 531.955C152.834 531.144 150.621 527.301 149.139 523.389C147.753 519.297 145.236 514.946 143.676 513.763C142.212 512.401 139.944 508.876 138.891 505.886C137.838 502.897 135.75 499.468 134.466 498.202C133.043 496.978 130.526 492.626 128.727 488.659C126.927 484.692 124.577 480.892 123.638 480.273C122.7 479.654 120.666 475.908 119.363 472.092C118.061 468.276 116.415 465.315 115.726 465.523C115.037 465.731 115.021 464.684 115.653 463.29C116.531 461.221 116.406 460.807 114.615 461.348C113.1 461.806 112.478 461.242 112.53 459.422C112.707 458.016 112.223 457.41 111.659 458.031C111.136 458.79 109.449 455.692 107.98 451.324C106.51 446.957 104.185 442.247 102.818 440.705C101.354 439.343 99.1126 434.908 97.7265 430.816C96.5198 426.821 94.8322 423.722 94.1433 423.93C93.4544 424.138 92.734 422.251 92.6194 419.88C92.3253 417.413 91.5088 415.705 90.8199 415.913C90.131 416.121 88.277 412.471 86.8206 407.649C85.4058 402.964 83.2032 397.165 81.9031 394.851C78.8192 389.618 75.4432 375.453 77.0965 374.953C77.7855 374.745 78.4771 376.04 78.6047 377.956C78.5529 379.776 80.6307 385.162 82.9138 389.735C85.2385 394.445 88.5332 401.87 90.3197 406.291C92.244 410.672 94.4854 415.107 95.645 415.959C97.9096 417.982 89.5541 394.796 85.0869 386.974C76.1238 370.737 71.8304 360.006 56.9447 316.691C52.4405 303.768 48.5892 293.505 48.4384 294.001C48.2461 294.36 49.0968 299.666 50.5144 305.853C51.8903 311.903 52.8113 317.939 52.5931 319.208C51.9772 321.649 47.228 302.937 44.1922 286.413L42.2439 276.477L44.9745 284.523C47.3177 291.784 49.6239 293.944 48.3441 287.715C45.9094 275.671 44.6787 266.12 45.3204 262.769C45.7023 260.549 46.0269 257.143 45.9955 255.048C46.0861 251.863 45.9067 251.767 44.7527 253.919C43.9833 255.355 43.0789 258.334 42.8348 260.512C42.5907 262.691 41.9305 263.492 41.5976 262.39C40.266 257.981 42.3632 251.484 49.0146 240.153C57.054 226.449 62.4478 220.911 73.3139 215.074C89.0828 206.553 108.011 207 128.543 216.736C131.868 218.288 136.186 220.141 138.352 220.84C140.476 221.402 144.092 223.918 146.344 226.395C155.322 235.711 173.931 264.972 183.563 284.916C187.95 293.965 187.991 294.103 185.421 298.036C180.651 305.641 159.982 318.348 145.377 322.759C137.524 325.131 133.5 325.745 119.95 326.68C117.579 326.794 116.557 325.9 115.904 323.241C113.514 312.837 108.659 326.631 110.309 339.063C111.259 345.692 114.132 348.734 118.403 347.444C120.194 346.903 120.729 345.689 120.022 343.346C119.19 340.591 119.616 340.011 123.131 339.701C125.281 339.353 127.873 339.472 128.77 339.953C129.763 340.254 132.96 339.89 136.033 339.112C139.064 338.197 144.108 336.974 147.222 336.334C156.344 334.181 173.548 326.429 178.778 321.843C181.531 319.508 185.438 315.02 187.72 311.625C192.285 304.834 193.717 304.1 194.716 307.407C195.964 311.541 199.867 319.984 205.679 331.76C208.916 337.999 215.23 352.931 219.802 365.082C224.373 377.232 233.485 399.438 240.116 414.425C254.348 447.112 253.794 445.776 260.599 457.853C263.545 463.128 269.978 475.468 274.849 485.122C279.719 494.777 289.073 513.302 295.534 526.235C301.996 539.168 310.203 556.385 313.843 564.456C317.442 572.39 321.579 580.613 323.03 582.43C324.343 584.288 325.422 586.368 325.175 587.044C325.108 587.816 326.722 588.682 328.805 589.105C331.025 589.487 333.04 590.683 333.373 591.785C333.664 592.749 334.878 593.285 335.981 592.952C337.083 592.619 337.839 591.639 337.631 590.95C337.381 590.123 338.455 589.198 339.833 588.781C341.348 588.324 342.794 587.135 342.957 586.184C343.3 585.329 344.717 583.548 346.066 582.539C348.489 580.604 348.515 579.694 344.939 569.348C342.749 563.093 340.55 558.796 339.985 559.418C339.463 560.177 338.829 560.068 338.579 559.241C338.371 558.552 338.672 557.559 339.278 557.075C340.531 556.246 337.615 545.099 330.612 522.406C327.853 513.768 326.69 511.413 326.046 513.261C325.443 515.247 325.18 514.876 325.078 512.05C324.904 506.991 316.204 476.692 312.522 468.483C310.944 464.75 309.945 461.443 310.509 460.821C310.935 460.242 310.561 459.002 309.539 458.107C308.379 457.255 307.217 454.9 306.635 452.971C305.815 449.76 305.953 449.719 308.083 453.285L310.433 457.086L309.239 452.635C308.532 450.293 307.37 447.938 306.418 447.774C305.604 447.569 304.541 446.537 304.291 445.71C303.958 444.608 304.372 444.483 305.573 445.473C306.816 446.601 307.242 446.022 306.823 443.141C306.584 440.357 306.058 439.613 304.847 440.581C302.658 442.294 302.284 441.054 304.057 437.963C305.595 435.093 300.562 411.956 295.548 399.337C292.958 392.752 292.581 390.01 293.556 387.761C294.476 385.829 294.195 382.907 292.616 379.174C291.425 376.226 290.785 373.112 291.349 372.49C291.913 371.869 291.549 368.671 290.592 365.502C289.593 362.196 288.451 355.925 287.934 351.722C287.512 347.339 286.591 341.302 286.089 338.146C281.37 313.561 276.331 279.451 276.148 269.884C276.129 267.334 275.783 266.686 274.751 267.75C273.761 268.951 273.373 268.166 273.23 265.202C273.115 262.831 272.78 260.226 272.489 259.262C272.197 258.297 272.499 257.304 273.188 257.096C273.877 256.888 273.64 255.607 272.769 254.216C271.898 252.825 271.661 251.543 272.35 251.335C273.177 251.086 273.312 249.541 272.771 247.75C270.981 241.826 268.086 226.763 268.567 225.866C268.855 225.328 271.489 225.585 274.427 226.352C277.365 227.118 285.307 228.027 291.993 228.263C312.687 229.08 332.015 221.889 351.906 206.109C353.861 204.617 355.873 204.31 358.811 205.076C363.956 206.68 364.629 205.424 361.655 199.557C359.621 195.811 358.103 194.766 352.656 194.156C344.535 193.151 336.499 193.924 337.04 195.715C337.29 196.541 338.145 196.885 338.834 196.676C339.661 196.427 340.42 196.949 340.628 197.638C341.335 199.98 327.475 211.834 320.56 214.825C307.047 220.86 268.54 218.808 269.052 212.038C269.132 210.811 268.261 209.421 267.088 209.023C265.778 208.667 265.391 207.882 266.009 206.943C266.67 206.142 266.942 204.557 266.747 203.413C266.552 202.269 266.13 197.886 265.834 193.916C265.633 189.767 265.115 185.563 264.92 184.419C264.725 183.276 265.024 180.78 265.53 178.973C266.38 176.311 266.752 176.048 267.899 177.356C270.358 180.522 277.284 183.542 281.433 183.341C287.223 183.096 290.8 179.009 293.279 170.292C295.812 161.258 295.784 160.665 292.282 160.52C290.421 160.33 288.536 162.553 285.734 168.21C283.647 172.75 281.448 176.421 280.897 176.587C278.417 177.336 273.74 175.291 269.79 171.672C265.799 167.916 265.37 166.993 265.359 160.983C265.325 157.385 266.102 152.49 267.31 150.02C268.34 147.454 268.968 144.557 268.594 143.317C268.261 142.215 270.14 136.987 272.75 131.688C276.128 124.955 279.154 121.034 283.656 118.02C287.098 115.478 292.687 111.083 296.004 108.127C303.34 101.552 302.788 101.718 313.775 101.257ZM43.2676 270.906C43.4238 273.415 43.2343 275.276 42.6961 274.988C42.1995 274.837 41.6299 272.453 41.4736 269.944C41.3174 267.436 41.5069 265.574 42.0451 265.863C42.5417 266.014 43.1113 268.397 43.2676 270.906ZM55.3755 325.434C54.4138 327.228 52.5496 325.536 53.2487 323.37C53.6176 321.605 53.8932 321.521 54.902 322.871C55.4689 323.752 55.664 324.896 55.3755 325.434ZM62.5058 342.074C64.5447 348.825 63.7726 348.758 60.5066 341.926C59.261 339.295 58.6914 336.911 59.5181 336.662C60.207 336.453 61.5487 338.905 62.5058 342.074ZM265.591 279.236C265.511 280.463 264.973 280.175 264.515 278.659C263.919 277.185 264.083 276.234 264.663 276.66C265.201 276.949 265.713 278.147 265.591 279.236ZM68.0475 356.938C67.9254 358.028 67.4418 357.422 66.8592 355.493C66.2767 353.564 66.3442 352.792 67.0072 353.494C67.574 354.375 68.0734 356.028 68.0475 356.938ZM72.5017 365.215C73.3756 368.109 73.3238 369.929 72.3307 369.627C71.5169 369.422 70.0374 367.012 69.2468 364.394C68.373 361.501 68.4247 359.681 69.4179 359.982C70.3694 360.146 71.7111 362.598 72.5017 365.215ZM437.983 317.38C437.902 318.608 437.364 318.319 436.906 316.803C436.311 315.33 436.475 314.378 437.054 314.804C437.593 315.093 438.105 316.291 437.983 317.38ZM299.445 419.209C299.284 421.663 298.816 422.105 298.359 420.59C297.305 417.6 297.723 412.512 298.815 414.137C299.341 414.881 299.593 417.21 299.445 419.209ZM300.889 424.486C301.097 425.175 300.382 426.293 299.542 426.998C298.331 427.965 297.793 427.677 297.928 426.132C298.13 423.816 300.306 422.557 300.889 424.486ZM531.77 408.882C537.227 407.535 554.58 428.154 568.769 452.736C581.092 474.122 592.835 525.452 596.774 575.832C598.62 597.375 598.216 632.378 596.01 647.477C592.444 672.009 585.738 683.656 567.193 696.925C561.617 700.864 560.79 701.113 552.918 700.935C547.776 700.834 542.439 699.59 539.348 697.817C533.441 694.188 526.038 687.102 525.081 683.933C524.748 682.831 523.493 682.158 522.39 682.491C521.288 682.824 520.116 682.426 519.908 681.737C519.658 680.911 517.976 680.817 516.185 681.358C514.256 681.941 512.119 681.834 511.498 681.27C510.835 680.568 510.806 679.976 511.495 679.768C512.184 679.56 514.065 675.834 515.505 671.64C517.083 667.405 519.058 661.998 520.087 659.432C523.091 651.458 522.6 646.344 517.227 633.534C510.996 618.877 505.024 609.555 498.272 603.626C491.119 597.367 487.419 586.607 484.135 562.791C482.655 552.413 480.506 538.328 479.239 531.645C476.05 514.115 475.701 511.965 476.345 510.117C476.509 509.165 475.783 504.273 474.602 499.367C470.225 480.392 472.664 465.072 484.007 440.898C493.496 421.043 501.232 414.798 520.87 411.122C525.996 410.175 530.944 409.132 531.77 408.882ZM574.403 435.548C574.323 436.775 573.785 436.487 573.327 434.971C572.732 433.497 572.895 432.546 573.475 432.972C574.013 433.26 574.526 434.459 574.403 435.548ZM580.389 444.415C580.735 445.062 580.184 445.229 579.232 445.065C578.418 444.86 577.189 443.277 576.827 441.582C575.953 438.688 576.091 438.647 577.984 440.932C579.131 442.239 580.223 443.864 580.389 444.415ZM192.476 595.698C193.098 596.262 193.03 597.034 192.341 597.242C191.515 597.492 190.618 597.011 190.41 596.322C190.16 595.495 190.269 594.861 190.545 594.778C190.958 594.653 191.813 594.996 192.476 595.698ZM199.531 608.602C201.481 612.072 202.576 615.2 202.025 615.366C200.371 615.866 199.363 614.516 196.305 608.374C192.472 600.661 195.339 600.697 199.531 608.602ZM210.806 630.004L211.776 632.718L209.703 630.337C208.557 629.03 207.311 626.399 206.729 624.47L205.688 621.025L207.831 624.137C208.965 625.9 210.348 628.489 210.806 630.004ZM629.533 547.896C636.222 549.635 648.759 560.282 656.788 570.937C673.676 593.501 679.967 610.845 683.27 645.18C683.567 649.149 684.337 655.682 684.813 659.748C685.765 667.88 685.659 692.419 684.753 701.864C681.787 730.874 671.296 760.354 659.861 771.776C657.191 774.386 638.04 780.17 632.676 779.835C630.857 779.783 627.56 778.824 625.311 777.85C623.062 776.875 620.096 775.516 618.427 774.967C613.833 773.198 602.408 760.26 598.133 752.079C595.892 747.644 592.857 739.089 591.369 732.171C588.771 721.079 588.259 719.88 583.716 716.291L578.912 712.329L581.693 710.587C583.222 709.674 585.99 708.387 587.919 707.805C594.353 705.711 601.081 698.117 608.101 685.021C616.096 669.677 619.979 659.633 618.98 656.327C618.189 653.709 618.279 642.556 619.278 623.461C619.748 616.554 619.724 610.998 619.448 611.081C619.035 611.206 619.183 609.207 619.661 606.807C620.097 604.27 619.27 596.551 617.644 589.675C615.225 578.679 612.726 554.476 613.602 550.904C614.356 548.421 624.154 546.514 629.533 547.896ZM200.21 730.329C200.708 738.447 200.695 738.902 199.28 734.218C197.92 729.216 197.682 719.966 198.938 720.64C199.255 720.694 199.856 725.173 200.21 730.329ZM597.666 685.316C597.874 686.005 597.393 686.902 596.566 687.152C595.877 687.36 595.394 686.754 595.599 685.94C595.763 684.989 596.285 684.229 596.698 684.105C596.974 684.021 597.416 684.489 597.666 685.316ZM497.636 841.968C497.886 842.795 497.376 843.099 496.425 842.935C495.611 842.73 494.589 841.836 494.381 841.147C494.131 840.32 494.779 839.975 495.592 840.18C496.544 840.343 497.428 841.279 497.636 841.968Z" fill="#3B3B3B"/>
<path d="M310.046 165.077C321.689 176.746 328.857 176.085 336.124 162.314C340.644 153.882 340.805 151.428 336.957 150.636C334.378 150.061 333.167 151.029 330.006 156.494C324.371 165.713 318.956 167.198 312.989 160.881C309.936 157.744 307.604 156.493 305.675 157.076C303.057 157.867 303.362 158.376 310.046 165.077Z" fill="#3B3B3B"/>
<path d="M44.3311 249.536C44.1258 250.35 44.6094 250.955 45.2983 250.747C46.125 250.498 46.6059 249.601 46.3978 248.912C46.1481 248.085 45.7061 247.617 45.4306 247.7C45.0172 247.825 44.4948 248.585 44.3311 249.536Z" fill="#3B3B3B"/>
<path d="M141.115 238.95C141.066 242.272 142.247 247.178 144.212 251.696C146.483 256.723 147.052 259.107 145.95 259.44C143.608 260.148 136.785 253.488 133.99 247.717C131.361 242.497 127.001 240.506 124.511 243.213C122.296 245.836 130.866 258.282 137.891 262.626C142.28 265.209 144.721 265.825 148.028 264.827C155.606 262.538 156.164 258.911 151.327 244.886C147.681 233.809 146.935 232.832 144.33 233.168C142.042 233.558 141.231 234.855 141.115 238.95Z" fill="#3B3B3B"/>
<path d="M109.335 251.705C107.767 253.983 107.895 255.898 111.387 265.969C114.617 275.669 114.966 277.819 113.313 278.318C110.695 279.108 107.146 275.82 101.644 267.559C98.4093 262.823 96.6283 261.406 94.2029 261.838C91.8735 262.09 91.2549 263.029 91.8791 265.096C93.169 269.367 102.841 281.48 106.609 283.5C111.452 286.096 118.671 283.615 121.185 278.496C123.409 273.915 123.352 272.73 118.957 259.173C115.477 248.647 113.117 246.804 109.335 251.705Z" fill="#3B3B3B"/>
<path d="M294.807 393.396C295.389 395.325 295.873 395.931 295.995 394.842C296.021 393.932 295.522 392.279 294.955 391.397C294.292 390.695 294.224 391.468 294.807 393.396Z" fill="#3B3B3B"/>
<path d="M189.521 577.947C189.979 579.463 190.517 579.751 190.598 578.524C190.72 577.435 190.207 576.237 189.669 575.948C189.089 575.522 188.926 576.473 189.521 577.947Z" fill="#3B3B3B"/>
<path d="M283.162 410.595C283.37 411.284 284.142 411.352 284.706 410.73C285.408 410.067 285.751 409.212 285.626 408.799C285.543 408.523 284.909 408.414 284.082 408.663C283.393 408.872 282.912 409.769 283.162 410.595Z" fill="#3B3B3B"/>
<path d="M802.066 819.487C807.373 826.605 806.754 827.543 797.613 827.147C795.339 827.082 795.781 827.55 799.423 829.156L804.142 831.339L800.027 835.138C797.783 837.168 796.078 839.488 796.328 840.314C796.578 841.141 798.148 840.366 800.253 838.377C804.657 834.04 805.387 833.97 804.553 837.68C803.802 841.665 804.052 842.492 805.843 841.951C806.67 841.701 807.59 839.77 807.834 837.591C808.377 832.917 811.026 834.222 812.815 840.146C813.44 842.213 814.753 844.071 815.746 844.373C816.877 844.633 816.528 842.483 814.175 837.18C811.005 830.169 810.976 829.576 813.527 829.557C821.315 829.46 826.166 828.597 824.923 827.468C824.26 826.767 821.447 826.413 818.98 826.707L814.239 826.937L820.514 820.832C824.023 817.517 825.824 815.018 824.405 815.297C823.027 815.713 819.819 818.035 817.287 820.603C811.81 825.866 810.128 825.773 811.924 820.269C813.364 816.075 813.098 814.201 811.445 814.7C810.756 814.908 809.974 816.798 809.73 818.977C809.158 823.059 806.736 824.993 805.82 821.962C805.529 820.997 803.94 819.222 802.38 818.039C799.702 816.142 799.744 816.28 802.066 819.487Z" fill="#3B3B3B"/>
<path d="M825.032 849.236C824.055 849.982 824.141 851.761 825.137 853.565C826.091 855.231 827.558 858.096 828.553 859.9C829.549 861.704 830.972 862.928 831.798 862.678C832.625 862.429 832.747 861.34 831.863 860.404C830.287 858.173 831.21 857.744 837.483 858.105C840.075 858.224 843.507 857.639 845.215 856.822C847.708 855.618 846.99 855.234 841.848 855.133C834.472 855.105 833.367 853.935 837.953 851.197C841.52 849.068 841.21 845.553 837.529 845.312C834.757 845.096 827.179 847.385 825.032 849.236ZM835.221 849.617C833.006 852.24 827.081 854.03 827.643 851.906C827.806 850.954 830.12 849.654 832.462 848.947C835.769 847.948 836.445 848.195 835.221 849.617Z" fill="#3B3B3B"/>
<path d="M799.398 860.436C796.897 865.1 798.562 870.611 802.589 871.5C806.574 872.251 812.499 870.461 813.06 868.337C813.362 867.344 811.542 867.292 808.924 868.083C802.999 869.872 799.854 868.417 800.701 864.252C800.973 862.666 802.156 861.106 803.258 860.773C804.361 860.44 805.034 859.185 804.701 858.082C803.827 855.189 801.706 856.13 799.398 860.436Z" fill="#3B3B3B"/>
<path d="M811.887 859.972C813.353 862.836 814.999 865.797 815.621 866.361C817.443 867.916 821.644 865.895 824.077 862.003L826.552 858.249L820.757 855.489C817.611 854.033 813.721 853.103 812.206 853.561C809.45 854.393 809.479 854.986 811.887 859.972ZM819.987 856.924C822.803 858.78 822.845 858.917 820.133 861.39C817.518 863.683 817.022 863.533 814.52 860.229C812.24 857.159 812.211 856.566 814.416 855.9C815.794 855.484 818.193 855.962 819.987 856.924Z" fill="#3B3B3B"/>
</svg>
