<svg width="806" height="504" viewBox="0 0 806 504" fill="none" xmlns="http://www.w3.org/2000/svg">
<path d="M402.706 1.91147C378.446 6.69257 354.186 23.692 343.739 43.3476C340.728 48.837 336.301 59.8158 333.645 67.6072C331.166 75.3987 327.979 82.6588 326.385 83.8984C324.614 85.1379 324.437 86.2004 325.5 87.0858C329.041 89.2107 327.802 96.1167 323.906 96.2938C319.302 96.648 310.625 103.554 308.146 108.866C305.667 114.002 305.667 124.272 307.969 128.699C309.386 131.355 308.5 134.72 303.719 144.105C297.167 157.208 290.261 177.927 290.261 184.478C290.261 186.78 291.147 189.259 292.386 189.968C293.626 190.676 303.365 191.562 314.167 191.916L333.645 192.27L340.905 202.54C349.051 213.873 358.79 222.55 363.926 222.904C365.696 223.081 371.009 222.55 375.436 221.842L383.404 220.602L382.165 230.873C380.04 248.403 380.217 256.195 383.05 256.195C384.467 256.195 386.06 254.601 386.769 252.83C387.477 250.351 389.956 249.112 396.154 248.58C400.758 248.049 407.841 247.164 411.914 246.633L419.351 245.57L418.465 251.414C417.757 254.424 415.809 258.143 414.038 259.559C410.674 262.038 409.434 269.476 412.091 271.069C412.976 271.601 415.455 270.007 417.403 267.705C421.83 262.747 425.726 262.038 427.319 265.934C427.851 267.351 429.444 268.59 431.038 268.59C434.402 268.59 434.579 262.215 431.038 260.799C429.267 260.268 428.382 257.434 428.382 253.007V246.101L442.194 245.039C450.516 244.508 456.714 244.862 458.131 246.101C459.902 247.518 460.964 247.341 462.026 245.747C463.266 243.622 468.224 214.227 469.464 201.301L469.995 196.874H496.911C522.41 196.874 529.316 195.811 524.358 192.624C523.118 191.916 504.348 190.145 482.745 189.082C461.141 187.843 443.256 186.603 442.902 186.249C442.725 186.072 443.079 183.947 444.142 181.645C447.683 172.614 451.933 150.302 452.641 136.667C453.704 116.481 453.704 88.3253 452.641 79.4714C451.402 70.7946 452.818 70.2634 462.026 75.7528C471.589 81.7734 505.233 106.033 506.65 108.158C511.785 115.949 519.577 144.459 522.941 167.302C525.951 188.905 527.191 193.332 529.847 193.864C532.326 194.395 532.857 193.155 532.857 186.426C532.857 167.125 525.951 135.074 518.16 118.428C515.15 111.7 514.796 108.512 515.681 94.523C517.098 75.7528 515.15 66.3677 506.296 48.3058C488.942 13.0674 445.381 -6.41116 402.706 1.91147ZM453.704 11.6508C467.693 17.1402 483.807 29.8897 493.015 42.9935L500.806 53.6181L495.494 52.9098C492.484 52.5556 490.359 52.9098 490.359 54.1494C490.359 56.4514 499.39 61.2325 502.046 60.17C503.286 59.8158 504.879 63.0032 506.119 67.4302C508.598 77.1694 508.775 96.825 506.296 96.825C505.41 96.825 497.796 91.8669 489.473 85.6691C472.828 73.2737 442.902 56.9826 423.955 49.8995C398.102 40.1602 366.405 34.3167 363.571 38.5665C362.863 39.8061 363.04 41.0456 364.28 41.5768C365.519 41.931 366.05 43.8789 365.342 46.3579C363.926 52.3786 367.998 53.7952 372.071 48.837C374.019 46.535 375.081 45.4725 374.727 46.3579C374.196 47.4204 374.55 49.3683 375.436 50.7849C376.852 53.0869 377.738 52.7327 380.748 49.1912C383.935 45.2955 384.821 45.1184 391.018 47.0663C396.508 48.6599 398.102 50.0766 398.987 54.3264C400.226 60.8783 405.362 61.5866 405.362 55.2118C405.362 52.7327 406.247 50.7849 407.132 50.7849C408.195 50.7849 408.903 51.8473 408.903 53.0869C408.903 54.5035 410.497 56.9826 412.445 58.7534C415.986 61.9408 416.163 61.9408 417.049 58.3992L418.111 54.6806L426.257 58.0451C430.861 59.9929 437.236 62.8261 440.423 64.5969L446.267 67.6072L445.735 88.8565L445.204 110.106L427.496 109.752C411.028 109.398 409.612 109.043 406.247 105.148C401.289 98.95 396.154 96.825 386.946 96.825C380.571 96.825 377.738 97.8875 372.956 101.96C367.467 106.918 366.582 107.096 356.488 105.856C336.656 103.554 326.385 88.8565 342.499 85.8462C347.103 85.1379 347.103 80.1797 342.322 79.4714L338.781 78.9402L342.676 67.076C350.113 44.7642 361.978 28.8273 380.394 16.0777C383.935 13.5986 398.987 8.8175 406.247 7.57797C419.174 5.6301 443.433 7.75504 453.704 11.6508ZM400.049 106.564C401.289 108.158 401.466 109.22 400.404 109.22C399.518 109.22 398.279 107.981 397.57 106.564C397.039 105.148 396.862 103.908 397.216 103.908C397.57 103.908 398.81 105.148 400.049 106.564ZM365.342 121.616C366.936 133.303 375.436 141.094 386.769 141.094C393.497 141.094 395.445 140.209 401.643 133.657C406.778 128.522 408.903 124.803 408.903 121.262V116.304L426.788 116.658C436.527 116.835 444.85 117.366 445.027 117.897C446.798 120.908 442.194 156.677 438.121 171.906C434.579 185.541 434.048 189.791 435.819 190.853C436.881 191.562 443.788 192.801 450.694 193.332L463.62 194.572L462.558 203.78C462.026 208.738 461.141 215.821 460.433 219.54L459.37 226.092L438.121 226.977C426.434 227.508 411.028 228.571 403.945 229.279L390.841 230.696L392.081 222.727C392.789 218.3 393.497 213.873 393.497 213.165C393.675 212.28 392.435 210.686 390.841 209.623C388.539 208.03 386.06 208.738 378.977 212.457C368.175 218.3 363.926 217.592 355.426 208.738C347.989 200.77 335.593 178.458 332.76 168.01C330.635 160.042 325.677 157.563 325.677 164.469C325.677 168.719 327.625 177.749 329.927 185.01C331.166 188.551 330.812 188.728 326.562 187.135C324.083 186.249 316.823 185.364 310.802 185.364C304.782 185.364 299.292 184.833 298.761 184.301C297.344 183.062 306.198 156.854 311.334 146.761C315.052 139.501 315.583 139.324 321.25 140.386C331.343 142.157 344.624 135.782 345.864 128.345C346.041 127.105 347.103 124.272 348.343 122.147C349.582 120.022 350.468 117.189 350.468 115.949C350.468 114.356 352.947 113.47 357.374 113.47L364.28 113.293L365.342 121.616ZM316.823 123.387C316.823 124.272 315.938 125.157 314.875 125.157C313.99 125.157 313.636 124.272 314.167 123.387C314.698 122.324 315.583 121.616 316.115 121.616C316.469 121.616 316.823 122.324 316.823 123.387ZM381.633 133.48C379.863 135.251 378.269 132.595 379.863 130.293C380.925 128.345 381.279 128.345 381.987 130.293C382.342 131.532 382.165 132.949 381.633 133.48ZM395.091 132.595C393.852 133.834 392.966 134.011 392.966 132.949C392.966 131.886 393.497 130.47 394.206 129.939C394.737 129.23 395.799 129.053 396.331 129.584C396.685 130.116 396.154 131.532 395.091 132.595ZM323.021 132.241C323.552 133.126 323.198 134.011 322.312 134.011C321.25 134.011 320.364 133.126 320.364 132.241C320.364 131.178 320.719 130.47 321.073 130.47C321.604 130.47 322.489 131.178 323.021 132.241ZM458.485 233.175C458.485 234.06 458.131 234.945 457.777 234.945C457.245 234.945 456.36 234.06 455.829 233.175C455.298 232.112 455.652 231.404 456.537 231.404C457.6 231.404 458.485 232.112 458.485 233.175Z" fill="#3B3B3B"/>
<path d="M393.852 15.3693C392.789 16.963 399.695 20.6816 403.591 20.6816C406.424 20.6816 407.664 16.7859 405.185 15.1922C401.82 13.0673 395.268 13.2444 393.852 15.3693Z" fill="#3B3B3B"/>
<path d="M417.757 21.2128C417.757 24.4002 428.028 28.8271 430.153 26.7022C432.632 24.2231 429.798 21.2128 423.601 19.7962C418.997 18.9108 417.757 19.2649 417.757 21.2128Z" fill="#3B3B3B"/>
<path d="M383.404 24.0469C381.102 27.5884 392.612 32.0154 396.685 29.3592C398.633 27.9426 398.456 27.2343 395.8 25.1093C391.904 22.099 384.821 21.5678 383.404 24.0469Z" fill="#3B3B3B"/>
<path d="M408.903 30.0673C408.903 32.5464 415.986 36.6191 420.413 36.6191C424.663 36.6191 423.424 32.0151 418.643 29.8902C412.622 27.057 408.903 27.234 408.903 30.0673Z" fill="#3B3B3B"/>
<path d="M445.204 29.535C443.788 31.837 453.704 36.6181 456.537 35.0244C458.308 33.9619 458.131 32.8995 455.829 30.5975C452.641 27.4101 446.975 26.8788 445.204 29.535Z" fill="#3B3B3B"/>
<path d="M436.173 39.983C436.704 40.6913 439.538 42.4621 442.548 43.7016C446.798 45.4724 448.569 45.4724 450.162 43.8787C451.756 42.285 451.579 41.3996 449.631 40.1601C446.267 38.0352 434.934 37.8581 436.173 39.983Z" fill="#3B3B3B"/>
<path d="M471.766 40.3374C470.349 42.6394 473.182 44.9414 479.38 46.5351C484.515 47.9517 486.463 46.181 483.099 42.9936C479.38 39.452 473.182 37.8583 471.766 40.3374Z" fill="#3B3B3B"/>
<path d="M461.141 49.0136C460.079 50.7844 470.172 56.0967 474.422 56.0967C478.141 56.0967 476.016 50.6073 471.589 49.0136C465.745 46.7116 462.558 46.7116 461.141 49.0136Z" fill="#3B3B3B"/>
<path d="M481.505 63.8892C481.505 66.3683 493.723 72.2119 496.202 70.7953C498.682 69.2016 497.265 66.7225 492.13 64.0663C485.755 60.7018 481.505 60.7018 481.505 63.8892Z" fill="#3B3B3B"/>
<path d="M381.279 81.0649C379.508 83.8982 383.935 86.2002 391.727 86.2002C399.341 86.2002 400.404 83.367 393.675 80.8879C387.654 78.5859 382.873 78.5859 381.279 81.0649Z" fill="#3B3B3B"/>
<path d="M346.041 132.063C342.676 138.083 339.489 141.448 335.947 142.687C331.875 144.104 330.812 145.521 331.343 148.531C332.052 153.312 342.145 160.572 347.989 160.572C354.186 160.572 353.124 157.385 346.041 154.552C342.676 153.135 339.843 151.364 339.843 150.656C339.843 149.948 343.562 146.052 347.989 141.979C354.364 135.958 355.957 133.479 355.426 129.407C354.541 121.615 351.176 122.501 346.041 132.063Z" fill="#3B3B3B"/>
<path d="M346.041 180.051C344.447 184.832 347.989 190.499 353.301 191.738C357.905 192.978 369.592 191.561 371.54 189.79C372.071 189.082 369.592 185.895 366.05 182.53C358.082 175.447 347.989 174.031 346.041 180.051ZM358.613 184.478C361.801 187.134 361.801 187.134 357.728 186.78C355.249 186.426 353.124 185.186 352.593 183.947C351.707 180.937 354.363 181.291 358.613 184.478Z" fill="#3B3B3B"/>
<path d="M468.401 237.071C467.87 239.373 467.339 243.623 467.339 246.811C467.339 249.998 465.391 258.675 462.912 266.289C458.485 280.278 454.766 285.591 438.475 300.288L431.923 306.132L432.986 340.13C434.225 378.202 435.288 386.348 439.007 386.348C441.84 386.348 442.194 372.536 440.6 325.61L440.069 307.371L446.975 303.475C461.141 295.507 476.193 269.831 476.193 253.717V248.404L481.505 253.54C485.578 257.435 487.349 258.144 488.942 256.55C490.536 254.956 489.119 252.123 482.922 244.331C473.891 232.821 470.172 231.051 468.401 237.071Z" fill="#3B3B3B"/>
<path d="M365.342 238.842C362.509 241.144 357.374 245.925 354.009 249.644C348.166 256.019 347.634 256.196 341.968 254.248C338.072 252.831 330.812 252.654 320.719 253.363C312.219 254.071 302.126 254.602 298.23 254.602C288.668 254.425 266.179 258.852 255.377 262.925C232.357 271.602 213.41 290.372 211.285 306.309C210.222 313.215 210.576 314.454 213.941 316.225C218.191 318.527 218.368 318.173 220.316 307.194C223.68 285.945 259.627 265.758 296.459 263.987C303.365 263.633 312.75 262.571 317.531 261.331C322.667 260.269 330.635 259.914 337.187 260.623L348.52 261.685L350.291 270.539C352.77 281.872 359.322 294.799 365.873 300.642C372.602 307.017 385.352 313.215 389.956 312.506C395.268 311.798 393.498 308.788 386.06 306.309C372.425 301.705 366.051 294.09 359.322 274.258L354.54 259.914L360.207 254.425L365.873 248.936L367.113 258.321C369.238 274.258 372.248 281.518 379.863 289.309C387.3 296.747 399.341 304.007 404.299 304.007C407.664 304.007 408.549 310.913 409.966 352.349C410.851 381.035 411.559 387.764 413.684 388.473C418.111 390.243 419.528 385.108 418.643 371.296C417.403 356.245 416.341 329.506 416.163 313.746L415.986 302.944L406.07 298.163C381.81 286.299 376.321 277.091 374.55 246.811C374.019 235.655 371.894 233.884 365.342 238.842Z" fill="#3B3B3B"/>
<path d="M502.4 250.174C497.619 251.591 493.901 253.893 493.901 255.132C493.901 258.143 502.223 259.913 507.004 257.966C509.129 257.257 517.098 256.018 524.889 255.486C538.878 254.247 557.826 256.903 570.929 261.861C599.439 272.486 617.147 283.642 622.636 294.089C624.23 297.1 628.657 309.849 632.375 322.422C639.635 347.567 641.229 350.4 645.302 346.327C647.604 344.025 647.604 342.786 645.479 335.88C644.062 331.453 641.229 321.891 639.104 314.63C633.792 296.214 633.438 295.329 625.115 285.058C604.574 259.028 536.399 239.727 502.4 250.174Z" fill="#3B3B3B"/>
<path d="M482.568 271.246C482.036 272.84 481.505 275.85 481.505 277.621C481.505 282.756 465.214 299.224 455.298 304.183C450.694 306.485 446.621 308.61 446.267 308.964C445.736 309.141 446.267 310.203 447.329 311.266C451.402 315.339 462.204 310.912 473.537 300.287C485.401 289.131 489.12 282.579 488.234 274.611C487.703 269.121 484.161 266.996 482.568 271.246Z" fill="#3B3B3B"/>
<path d="M412.445 276.205C412.445 279.924 420.768 286.83 423.424 285.413C429.621 281.694 431.923 278.684 429.976 276.382C428.559 274.611 427.319 274.434 424.663 276.205C422.184 277.799 420.945 277.799 419.174 276.028C416.341 273.195 412.445 273.372 412.445 276.205Z" fill="#3B3B3B"/>
<path d="M181.713 324.193C176.046 326.672 169.849 329.859 168.078 331.453C163.474 335.703 160.464 344.025 161.703 349.161C163.12 354.827 168.078 355.004 168.078 349.515C168.078 340.307 190.036 327.026 205.087 327.026C211.285 327.026 212.347 324.547 207.212 321.714C201.723 318.88 192.692 319.766 181.713 324.193Z" fill="#3B3B3B"/>
<path d="M650.968 358.369C648.843 360.317 649.552 362.441 652.385 362.441C657.697 362.441 683.55 390.066 690.457 402.992C699.31 419.815 702.144 455.938 695.946 469.928C692.05 478.427 687.269 481.26 668.853 486.219C636.802 495.073 629.719 495.781 589.522 494.718C561.013 493.833 549.326 492.948 542.951 490.646C530.733 486.573 528.962 490.469 540.118 496.312C548.263 500.385 562.252 502.156 596.605 503.395C624.052 504.458 629.542 504.103 644.416 500.916C662.301 496.843 681.426 491 688.686 487.281C694.883 484.094 702.321 475.948 704.446 469.928L706.393 464.792L739.684 465.324C795.109 465.855 805.557 465.501 805.557 462.667C805.557 461.251 804.849 459.48 803.786 458.949C802.901 458.417 780.943 457.886 755.09 458.063H708.164V446.199C708.164 439.47 707.279 430.97 706.216 427.075C705.154 423.179 703.737 417.158 703.029 413.794C700.373 402.638 687.8 382.982 675.582 371.65C671.155 367.4 667.436 363.327 667.436 362.619C667.436 359.254 653.624 355.713 650.968 358.369Z" fill="#3B3B3B"/>
<path d="M133.371 367.754C122.923 373.597 114.778 383.691 109.288 397.857C106.278 405.648 105.392 411.138 105.57 424.419C105.57 433.627 106.455 444.782 107.517 449.209C108.58 453.459 109.111 457.355 108.757 457.709C108.403 458.063 83.9661 458.772 54.7483 458.949C25.3534 459.303 0.739638 460.011 0.208405 460.542C-0.322827 461.251 0.208405 462.667 1.27087 463.73C2.68749 465.146 19.1557 465.855 58.4669 466.209L113.538 466.74L118.319 474.354C129.475 492.062 139.923 497.374 169.672 500.562C199.066 503.926 259.096 501.979 276.272 497.197C296.813 491.531 307.084 486.573 304.073 483.74C303.719 483.208 291.855 485.333 277.689 488.166C256.262 492.416 246.7 493.479 217.66 494.01C168.609 495.25 138.152 490.823 130.892 481.615C123.454 472.052 116.902 455.23 114.069 438.585C111.413 423.002 111.413 421.231 114.246 412.023C120.444 391.836 132.662 374.129 144.172 368.816C150.37 365.806 151.078 362.441 145.412 362.441C143.818 362.441 138.329 364.743 133.371 367.754Z" fill="#3B3B3B"/>
<path d="M255.731 379.618C241.919 382.628 233.597 385.816 233.597 388.118C233.597 392.19 236.43 392.722 244.044 389.888C253.961 386.524 279.283 384.576 285.303 387.055C289.73 388.649 306.198 408.482 306.198 412.023C306.198 412.908 302.303 413.971 297.344 414.679C288.136 415.919 286.72 417.158 291.147 420.877C293.095 422.471 296.99 422.471 308.323 420.877C316.469 419.814 328.864 418.044 335.947 416.981C343.03 416.096 349.228 415.565 349.405 415.742C349.759 416.096 350.468 425.127 351.176 435.929L352.239 455.407L338.958 461.428C331.52 464.792 322.667 470.104 318.948 473.292C313.459 478.073 312.75 479.49 314.344 482.323C315.406 484.094 318.948 485.687 322.312 486.041C329.396 486.75 345.687 483.562 352.77 479.844C357.374 477.542 358.613 477.719 366.051 481.26C380.571 488.166 395.091 491.708 408.372 491.708C423.778 491.708 438.652 488.875 443.256 484.802C445.381 483.031 449.985 481.969 456.714 481.792C466.631 481.615 466.985 481.792 468.047 486.573C469.287 492.947 473.005 494.01 495.14 493.833C516.035 493.656 520.993 492.593 520.108 488.521C519.577 485.864 516.921 485.51 497.265 486.041L474.776 486.573L473.714 476.302C473.005 470.636 472.12 462.844 471.589 458.772C470.703 452.22 471.058 451.511 475.662 449.386C492.307 441.772 503.64 440.178 520.639 443.012C528.076 444.251 530.024 443.543 550.211 433.272C562.252 427.075 571.638 421.231 571.283 420.169C570.044 416.45 563.315 417.158 554.284 421.585C543.659 427.075 543.482 427.075 543.482 422.648C543.482 412.2 537.107 407.242 516.035 401.753C475.307 391.128 457.6 390.243 416.872 396.971C402.351 399.451 383.227 402.107 374.55 403.169C359.676 404.763 358.436 404.586 356.134 401.221C353.478 397.326 350.468 398.211 350.468 402.992C350.468 405.648 347.989 406.534 336.833 408.482C329.218 409.544 320.896 410.961 318.417 411.492C314.698 412.2 313.459 411.492 312.396 408.659C310.625 402.992 296.282 386.17 289.73 382.097C284.949 379.264 281.053 378.378 271.491 378.555C264.762 378.732 257.679 379.087 255.731 379.618ZM478.849 401.398C504.702 406.002 532.326 412.554 534.274 414.502C537.639 417.867 537.816 429.554 534.628 431.502C532.503 432.741 531.795 432.033 531.441 427.96C530.733 422.116 525.774 420.523 525.774 426.012C525.774 427.96 525.066 431.502 524.004 433.981L522.41 438.408L513.379 435.751C502.4 432.564 494.432 433.804 474.599 442.126C457.954 448.855 447.329 449.386 437.413 443.897C428.736 438.939 426.08 440.355 432.1 446.73C438.475 453.636 447.329 456.824 457.245 455.584L465.568 454.699V464.261V474H456.891C451.048 474 445.381 475.417 439.538 478.427C423.424 486.75 392.258 485.864 369.946 476.302C361.978 472.761 354.186 473.115 338.958 477.542C332.229 479.49 324.969 481.083 323.021 481.083C319.479 480.906 319.479 480.906 323.021 478.25C334.708 469.219 364.28 458.24 400.758 449.209C419.174 444.782 425.372 441.418 418.288 440.001C413.33 438.939 388.716 443.543 374.196 448.147C366.936 450.449 360.738 451.866 360.384 451.157C360.03 450.626 359.676 441.595 359.499 431.325L359.145 412.377L372.071 411.315C386.237 410.075 435.996 401.753 441.663 399.628C445.558 398.211 465.922 399.096 478.849 401.398Z" fill="#3B3B3B"/>
</svg>
